<svg xmlns="http://www.w3.org/2000/svg" fill="none" viewBox="0 0 600 600"><path fill="#1C3C3C" d="M352.3 380.2c-1.7 2.7-6.7 2.9-11 .4q-3.2-1.9-4.8-5-1.2-2.8 0-4.8 1.4-2.1 4.8-2.1 3 0 6.1 1.8c4.3 2.5 6.5 7 4.9 9.7M600 300c0 82.7-68.4 150-152.5 150h-295C68.4 450 0 382.7 0 300s68.4-150 152.5-150h295c84.1 0 152.5 67.3 152.5 150m-306.1 75.3c2.4-3-8.7-11-11-14-4.6-4.9-4.6-12-7.8-17.7a203 203 0 0 0-28.6-49.3c-12.9-16-28.8-29.4-42.8-44.4-10.5-10.6-13.2-25.5-22.4-36.9-12.7-18.3-52.7-23.4-58.6 2.6q.1 1.1-1 1.8a39 39 0 0 0-8.5 8.2c-6 8.2-6.9 22 .5 29.3.3-3.9.4-7.5 3.5-10.3 5.8 4.9 14.4 6.6 21 3 14.8 20.6 11.1 49.1 22.8 71.4 3.2 5.2 6.4 10.6 10.6 15.2 3.3 5.1 14.9 11.2 15.6 16 .1 8-.9 17 4.6 23.8 2.5 5.1-3.8 10.3-8.8 9.6-6.6 1-14.7-4.3-20.4-1.1-2 2.2-6-.2-7.8 2.8-.6 1.6-4 3.8-2 5.3 2.2-1.7 4.3-3.4 7.2-2.4-.4 2.4 1.4 2.7 3 3.4-.1 1.5-1 3.2.2 4.5 1.5-1.4 2.3-3.5 4.6-4 7.7 10 15.5-10.2 32-1.1-3.3-.1-6.3.3-8.6 3-.5.6-1 1.3 0 2.1 9-5.7 8.9 2 14.7-.4 4.4-2.3 8.9-5.1 14.2-4.3-5.2 1.4-5.4 5.5-8.4 9q-.9.6-.2 2c10.8-1 11.6-4.4 20.3-8.7 6.4-4 12.8 5.5 18.4.1 1.3-1.1 3-.7 4.5-.9-2-10.2-23.4 1.9-23.1-11.8 6.9-4.7 5.3-13.5 5.8-20.7 8 4.4 16.8 6.9 24.5 11 4 6.3 10.1 14.5 18.4 14l.6-1.8c2.5.4 5.7 2 7-1.1 3.8 3.9 9.2 3.6 14 2.7 3.7-3-6.7-7-8-10m111.3-48.4-16.4-21.7c-14.2 16-23.7 23.8-23.9 24-.1 0-9.2 8.8-17.4 16.2s-14.6 13.1-17.9 19.5a19 19 0 0 0 0 14.6q3.1 7.5 12.8 10.6 3 .9 5.5.8c11.6 0 19.2-11.4 19.3-11.4 0-.2 9.9-14 21.9-31.5 4-5.8 8.5-12 16-21.1m76.7 49.9a13 13 0 0 0-3.3-8.7l-2-2.2-56-62.3a942 942 0 0 1-33.9-40.7l-2-4.2v-7.4a20 20 0 0 0-1.6-7.9l-4.4-10.2v-.4l.1-1.5.3-.6a52 52 0 0 1 35.7-11.7c2.6.1 3-1.2 3-1.8.4-2.9-6.2-6.2-12.3-7.4-8.4-1.7-30.8-6.2-48.6 5.3l-.2.1c-11.6 9.5-20.8 16.8-21 16.9l-.1.2a12 12 0 0 0-2.7 8.9c.5 3.2-1.1 4.3-1.2 4.4-.1 0-2.4 1.5-4.8-.2-2.8-2-7.8 1.5-8.8 2.4l-7.6 6.3-.1.2c-.1.1-3.4 3.8 1 9.8a93 93 0 0 0 17.8 20.2s3.7 2.8 8.7-1c4-3 7.3-5.9 7.3-5.9.3-.2 2.7-2 2.8-5v-2c-.1-2-.1-2.7 1.4-3.6.8 0 3 .8 5 1.7q4.3 2.4 9.3 2.6c2.8.4 5.8 3.5 6.9 4.7 0 .1 9.4 9.8 22.5 26.6l14.2 18.6 17.4 23.3 31.1 41.6q3.2 4.1 8.3 5.1l2.2.4a13 13 0 0 0 12.8-4.5v-.1q2.8-3.6 2.8-8zm10.5-142.4-2.6-2.5a4 4 0 0 0-5.7.2l-16.3 19q-.8 1-1.9 1l-5.8.6a3 3 0 0 1-2-.7l-9.3-7.7a3 3 0 0 1-1-2l-.2-4.6q0-1 .7-1.8l15.9-18.8a4 4 0 0 0 0-5l-1.6-1.8a4 4 0 0 0-4.3-1 188 188 0 0 0-20.1 8.6c-9.7 5.2-16.4 13.3-17.6 21.3a125 125 0 0 0-.2 20.7q.2 3-1.3 6-1.9 3.5-6.8 10.3c-1.7 2.3-2.8 3.1-4.2 4.8l18 20.8c4.3-5 8-8.7 11.3-12.4 6-6.5 8-6.6 13-6.8 3-.1 7.3-.2 14-1.9 18.4-4.5 24.2-24 24.5-24.9l4.5-17.7a4 4 0 0 0-1-3.7m-282.1 124c-2 7.5-2.7 20.4-12.7 20.8-.8 4.4 3 6 6.6 4.6 3.6-1.6 5.2 1.3 6.4 4.1 5.5.8 13.5-1.8 13.8-8.1-8.1-4.6-10.6-13.4-14.2-21.5"/></svg>