<svg xmlns="http://www.w3.org/2000/svg" fill="none" viewBox="0 235 112 180"><path fill="#000" d="M135.3 266.8h31c22.5 0 28.2 13.6 28.2 24.6s-5.9 24.6-28.2 24.6h-19.2v38.7h-11.8zm11.8 10.5v28.2h15.7c9.4 0 18.9-2.2 18.9-14.1 0-12-9.5-14.1-18.9-14.1zm62.9-11a8.2 8.2 0 1 1 0 16.5 8.2 8.2 0 0 1 0-16.4m-5.5 29.6h11v58.8h-11zm23.8 0h11.2v9h.3c3.9-6.9 11.4-11 19.3-10.5 11.4 0 21.3 6.8 21.3 22.4v38h-11V320c0-11.1-6.4-15.2-13.5-15.2-9.3 0-16.4 6-16.4 19.6v30.3h-11.2zm72.5 33.5c0 10.3 9.6 17 19.9 17 6.5-.2 12.5-3.5 16.1-8.8l8.5 6.5a31 31 0 0 1-26.1 12.1c-18.3 0-29.8-12.8-30.3-29.8v-1.1a29.7 29.7 0 0 1 30.3-31c20.7 0 28.6 16 28.6 31.1v4zm35.4-9c-.3-9.8-5.8-17-17-17-9.7 0-17.7 7.4-18.3 17zm62.3-8.9c-3.6-4.3-9-6.7-14.6-6.6-12.2 0-18.4 9.9-18.4 20.9a19 19 0 0 0 19 20c5.6.2 10.8-2.3 14.3-6.6l8 7.9a29 29 0 0 1-22.4 9 29.3 29.3 0 0 1-30.8-30.6 29.7 29.7 0 0 1 30.8-31c8.5-.3 16.7 3 22.6 9.2zm41.3-17.1a31 31 0 1 1-1.3 0zm0 51.4c11.9 0 19.3-8.5 19.3-20.5s-7.4-20.5-19.3-20.5-19.4 8.5-19.4 20.5c0 11.6 7 20 18.4 20.5zm40.3-50h11.2v9.1c3.9-7 11.4-11 19.4-10.5 11.4 0 21.2 6.8 21.2 22.4v38h-11.1V320c0-11.1-6.4-15.2-13.4-15.2-9.4 0-16.4 6-16.4 19.6v30.3h-11zm72.6 33.6c0 10.3 9.6 17 20 17 6.4-.2 12.4-3.5 16-8.8l8.5 6.5a31 31 0 0 1-26 12c-18.3 0-29.8-12.9-30.3-29.9v-1a29.7 29.7 0 0 1 30.4-31c20.8 0 28.7 16 28.7 31v4zm35.3-9c-.3-9.8-5.7-17-17-17-9.6 0-17.7 7.4-18.3 17z"/><path fill="#201D1E" d="M45.7 346.6a7 7 0 1 1 0 13.9 7 7 0 0 1 0-13.9M84.1 334l6.9 2-5.5 18.4c-.4 1.6-2 2.6-3.6 2.5l-1.7-.1-17.5-1.2.5-7.1 11.7.8-7.6-11 5.8-4.1 7.7 11zM9.7 321.3l7.1.5-.8 11.8 11-7.7 4 5.8-11 7.7 11.3 3.3-2 6.9-18.4-5.4q-2.6-1-2.6-3.7zm46-10L68.4 327l-5.8 4.8-7.7-9.3-2.4 14.2-7.4-1.3 2.4-14.2-10.2 6.1-3.9-6.5 17.3-10.2c1.6-.9 3.7-.5 4.8.9m36-10.5 6.4-3.5 9.3 17.2c.9 1.5.5 3.3-.8 4.5l-1.3 1.1L91.7 332l-4.8-5.5 9-7.9-13.4-2.4 1.3-7.2 13.5 2.5zm-75.7-18 4.8 5.5-9 7.9 13.6 2.3-1.2 7.2-13.6-2.3 5.8 10.5-6.3 3.5-9.5-17.1c-.9-1.5-.5-3.4.7-4.5zm45.8-5.6 12.8 15.4-5.8 4.8-7.7-9.2-2.4 14.2-7.4-1.3 2.4-14.2-10.2 6-3.8-6.4 15.7-9.3h.1l1.5-.9c1.6-1 3.6-.6 4.8.9m16.5-7.6L81 263l18 7.5q2.7 1.3 2.3 4l-.3 1.7-3.1 17.6-7.2-1.3 2-11.7-12 6.6-3.5-6.4 12-6.6zm-34.5-13.3.3 7.3-12 .5 9 10.3-5.5 4.8-9-10.3-2.1 11.8-7.2-1.3 3.5-19.3c.3-1.7 1.7-3 3.4-3h1.7v-.1zM68 240.9l13 15.6-5.8 4.7-7.6-9.2-2.6 14.2-7.3-1.4 2.5-14.2-10.3 6-3.8-6.4L63.3 240c1.6-.9 3.7-.5 4.8.9"/></svg>
