<svg width="274" height="72" xmlns="http://www.w3.org/2000/svg" data-name="Layer 1">
 <title>DHL Group logo - Brandlogos.net</title>

 <g>
  <title>Layer 1</title>
  <polygon id="svg_1" fill="#d40511" points="0,30.870001984760165 36.9900016784668,30.870001984760165 34.970001220703125,33.620001984760165 0,33.620001984760165 0,30.870001984760165 0,30.870001984760165 "/>
  <polygon id="svg_2" fill="#d40511" points="0,25.77000160329044 40.75,25.77000160329044 38.72999954223633,28.52000160329044 0,28.52000160329044 0,25.77000160329044 0,25.77000160329044 "/>
  <polygon id="svg_3" fill="#d40511" points="0,35.98000259511173 33.2400016784668,35.98000259511173 31.229999542236328,38.710002137348056 0,38.710002137348056 0,35.98000259511173 0,35.98000259511173 "/>
  <polygon id="svg_4" fill="#d40511" points="273.54998779296875,33.620001984760165 236.6999969482422,33.620001984760165 238.72000122070312,30.880002213642 273.54998779296875,30.880002213642 273.54998779296875,33.620001984760165 273.54998779296875,33.620001984760165 "/>
  <polygon id="svg_5" fill="#d40511" points="273.54998779296875,38.710002137348056 232.9600067138672,38.72000045888126 234.97000122070312,35.98000259511173 273.54998779296875,35.98000259511173 273.54998779296875,38.710002137348056 273.54998779296875,38.710002137348056 "/>
  <polygon id="svg_6" fill="#d40511" points="242.47999572753906,25.77000160329044 273.54998779296875,25.77000160329044 273.54998779296875,28.52000160329044 240.4600067138672,28.52000160329044 242.47999572753906,25.77000160329044 242.47999572753906,25.77000160329044 "/>
  <path id="svg_7" fill="#d40511" d="m35.83,38.71l17.55,-23.85l21.78,0c2.41,0 2.38,0.91 1.2,2.51s-3.23,4.4 -4.45,6c-0.62,0.83 -1.73,2.36 2,2.36l29.17,0c-2.43,3.32 -10.3,12.94 -24.44,12.94l-42.81,0l0,0.04z"/>
  <path id="svg_8" fill="#d40511" d="m136.37,25.77l-9.52,12.94l-25.07,0s9.51,-12.94 9.52,-12.94l25.07,0z"/>
  <path id="svg_9" fill="#d40511" d="m172.68,25.77l-9.52,12.94l-25.1,0s9.52,-12.94 9.52,-12.94l25.1,0z"/>
  <path id="svg_10" fill="#d40511" d="m180.85,25.77s-1.83,2.51 -2.73,3.71c-3.15,4.26 -0.37,9.23 9.92,9.23l40.31,0l9.52,-12.94l-57,0l-0.02,0z"/>
  <path id="svg_11" fill="#d40511" d="m48.11,0.03l-8.74,11.87l47.63,0c2.41,0 2.38,0.91 1.2,2.51s-3.2,4.43 -4.41,6.08c-0.62,0.83 -1.73,2.35 2,2.35l19.48,0l5.77,-7.84c3.58,-4.86 0.31,-15 -12.49,-15l-50.44,0.03z"/>
  <polygon id="svg_12" fill="#d40511" points="174.8300018310547,22.840001298114657 113.41999816894531,22.840001298114657 130.2100067138672,0.03000183217227459 155.30999755859375,0.03000183217227459 145.69000244140625,13.11000175587833 156.88999938964844,13.11000175587833 166.52999877929688,0.03000183217227459 191.6199951171875,0.03000183217227459 174.8300018310547,22.840001298114657 174.8300018310547,22.840001298114657 "/>
  <path id="svg_13" fill="#d40511" d="m226.39,0.03l-16.79,22.81l-26.6,0s16.78,-22.81 16.78,-22.81l26.59,0l0.02,0z"/>
  <path id="svg_14" fill="#d40511" d="m179.78,67.57a7.48,7.48 0 0 1 -5.85,-2.31a9.19,9.19 0 0 1 -2.09,-6.4l0,-1.59a9.91,9.91 0 0 1 1,-4.65a7.09,7.09 0 0 1 2.86,-3a8.68,8.68 0 0 1 4.31,-1a8.89,8.89 0 0 1 3.54,0.67a7.68,7.68 0 0 1 2.72,2l-2.42,2.55a5.36,5.36 0 0 0 -1.84,-1.26a5.42,5.42 0 0 0 -1.95,-0.36a3.65,3.65 0 0 0 -3,1.33a6.19,6.19 0 0 0 -1.06,3.91l0,1.26a6.71,6.71 0 0 0 1,3.94a3.28,3.28 0 0 0 2.84,1.36a3.19,3.19 0 0 0 2.62,-1.13a4.45,4.45 0 0 0 0.92,-2.91l-3.6,0l0,-3.35l7.66,0l0,3.18a8.76,8.76 0 0 1 -0.93,4.19a6.37,6.37 0 0 1 -2.64,2.66a8.37,8.37 0 0 1 -4,0.92l-0.09,-0.01z"/>
  <path id="svg_15" fill="#d40511" d="m190.48,67.2l0,-14l3.76,0l0,3.49a8.36,8.36 0 0 1 0.81,-1.77a4.3,4.3 0 0 1 1.32,-1.37a3.58,3.58 0 0 1 2,-0.54l0.45,0l0.51,0.07l0,3.68l-0.48,0l-0.51,0a4.75,4.75 0 0 0 -2.47,0.58a4.64,4.64 0 0 0 -1.43,1.24l0,8.62l-4,0l0.04,0z"/>
  <path id="svg_16" fill="#d40511" d="m207.47,67.49a6.63,6.63 0 0 1 -4.93,-1.81a6.74,6.74 0 0 1 -1.8,-5l0,-1.1a6.74,6.74 0 0 1 1.8,-5a7.61,7.61 0 0 1 9.86,0a6.75,6.75 0 0 1 1.8,5l0,1.1a6.75,6.75 0 0 1 -1.8,5a6.63,6.63 0 0 1 -4.93,1.81zm0,-3.32a2.48,2.48 0 0 0 2,-0.88a4.11,4.11 0 0 0 0.73,-2.66l0,-0.93a4.11,4.11 0 0 0 -0.73,-2.66a2.76,2.76 0 0 0 -4,0a4.11,4.11 0 0 0 -0.73,2.66l0,0.93a4.11,4.11 0 0 0 0.73,2.66a2.47,2.47 0 0 0 2,0.91l0,-0.03z"/>
  <path id="svg_17" fill="#d40511" d="m221.23,67.43a3.72,3.72 0 0 1 -3.16,-1.46a6.72,6.72 0 0 1 -1.1,-4.12l0,-8.65l4,0l0,8.46a3,3 0 0 0 0.48,1.78a1.76,1.76 0 0 0 1.52,0.66a2.43,2.43 0 0 0 1.34,-0.37a3,3 0 0 0 0.93,-0.95l0,-9.58l4,0l0,14l-3.76,0l0,-2.44a5.5,5.5 0 0 1 -1.69,2a4.25,4.25 0 0 1 -2.54,0.76l-0.02,-0.09z"/>
  <path id="svg_18" fill="#d40511" d="m232.84,72.37l0,-19.17l3.76,0l0,2.42a4.59,4.59 0 0 1 1.66,-2a4.42,4.42 0 0 1 2.49,-0.71a4.34,4.34 0 0 1 3.69,1.8a8.12,8.12 0 0 1 1.33,4.93l0,1.1a8.12,8.12 0 0 1 -1.33,4.93a4.34,4.34 0 0 1 -3.69,1.8a4.07,4.07 0 0 1 -3.93,-2.53l0,7.47l-4,0l0.02,-0.04zm6.4,-16.14a2.81,2.81 0 0 0 -2.42,1.29l0,5.3a2.83,2.83 0 0 0 2.42,1.26a2.21,2.21 0 0 0 1.89,-0.89a4.27,4.27 0 0 0 0.66,-2.57l0,-0.93a4.27,4.27 0 0 0 -0.66,-2.57a2.21,2.21 0 0 0 -1.89,-0.89z"/>
 </g>
</svg>