<?xml version="1.0" encoding="UTF-8" standalone="no"?>
<!-- Created with Inkscape (http://www.inkscape.org/) -->

<svg
   version="1.0"
   width="354.12579"
   height="460.68399"
   id="svg1973"
   xmlns="http://www.w3.org/2000/svg"
   xmlns:svg="http://www.w3.org/2000/svg">
  <defs
     id="defs1975" />
  <path
     d="m 177.06289,0 c -8.14009,0 -16.05584,1.697239 -23.23451,4.807141 -7.21069,3.044513 -13.0113,6.729995 -18.42736,12.017836 -5.31988,5.31993 -9.7104,12.114018 -12.81902,19.228579 -3.04452,7.178655 -4.80714,14.293217 -4.80714,22.433301 0,8.140097 1.76391,16.055843 4.80714,23.234493 3.10862,7.082516 7.49914,13.139516 12.81902,18.42736 5.41606,5.35195 11.21667,9.71043 18.42736,12.81904 7.17867,3.04453 15.09442,4.80713 23.23451,4.80713 8.20417,0 16.05583,-1.76389 23.2345,-4.80713 7.11456,-3.10861 13.1395,-7.46709 18.42734,-12.81904 5.3199,-5.287844 9.71041,-11.344844 12.81903,-18.42736 3.04453,-7.17865 4.80716,-15.094396 4.80716,-23.234493 0,-8.140084 -1.76392,-15.254646 -4.80716,-22.433301 C 228.43514,28.938995 224.04463,22.144907 218.72473,16.824977 213.43689,11.537136 207.41194,7.851654 200.29739,4.807141 193.11872,1.698521 185.26706,0 177.06289,0 Z M 58.486833,153.82842 c -8.140082,0 -15.254649,0.89734 -22.433306,4.00594 -7.178658,3.07656 -13.876602,7.49914 -19.228547,12.81903 C 11.505085,175.9733 7.851661,182.70328 4.807141,189.88195 1.698521,196.99652 0,204.17517 0,212.31525 v 129.79271 h 271.60325 v 36.05352 H 0 v 6.40952 16.82497 c 0,8.17214 1.730572,16.05584 4.807141,23.2345 3.04452,7.17866 6.729985,13.07541 12.017839,18.42737 5.351945,5.28783 12.049889,9.74246 19.228547,12.81903 7.178657,3.10862 14.293224,4.80713 22.433306,4.80713 H 295.63893 c 8.14009,0 15.25464,-1.69723 22.4333,-4.80713 7.21071,-3.07657 13.94069,-7.5312 19.22855,-12.81903 5.35195,-5.35196 9.71042,-11.24871 12.81904,-18.42737 3.10862,-7.17866 4.00595,-15.06236 4.00595,-23.2345 V 384.571 271.60329 H 82.522525 V 236.35093 H 354.12578 v -24.03568 c 0,-8.14008 -0.86401,-15.31873 -4.00595,-22.4333 -3.07657,-7.17867 -7.46709,-13.90865 -12.81904,-19.22856 -5.28786,-5.31989 -12.01784,-9.74247 -19.22855,-12.81903 -7.17866,-3.1086 -14.29322,-4.00594 -22.4333,-4.00594 z"
     id="path7445"
     style="fill:#ee0000;fill-opacity:1;fill-rule:nonzero;stroke:none" />
</svg>
