<svg width="1080" height="380" xmlns="http://www.w3.org/2000/svg" xml:space="preserve" version="1.1">
 <desc>Created with Fabric.js 5.2.4</desc>

 <g>
  <title>Layer 1</title>
  <g id="6f8bcb4f-c880-4b76-8103-eb139e4031cb" transform="matrix(1 0 0 1 540 540)"/>
  <g id="svg_2" transform="matrix(4 0 0 4 540 540)">
   <g id="svg_3">
    <g id="Ebene_1" transform="matrix(1 0 0 1 90.56 9.03)">
     <path id="svg_4" fill-rule=" evenodd" fill=" rgb(32,86,43)" stroke-miterlimit="4" stroke-linejoin=" miter" stroke-dashoffset="0" stroke-dasharray=" none" stroke=" none" stroke-linecap=" butt" d="m9.79,-100.04c-0.5,1.12 -3.21,6.77 -3.77,7.1c-1.59,0.95 -2.2,1.8 -4.31,1.85c-0.24,0 -0.83,-0.07 -1.56,-0.21c-1.14,3.53 -5.18,13.8 -6.46,16.82l-2.49,-0.7c1.21,-2.94 5.35,-13.29 6.51,-16.73c-0.95,-0.31 -1.77,-0.7 -2.14,-1.14c-1.98,-2.36 -1.59,-8.89 -1.29,-10.97l15.52,3.97l-0.01,0.01z" vector-effect="non-scaling-stroke"/>
    </g>
    <g id="Ebene_1" transform="matrix(1 0 0 1 86.89 -7.83)">
     <path id="svg_5" fill-rule=" nonzero" fill=" rgb(153,14,39)" stroke-miterlimit="4" stroke-linejoin=" miter" stroke-dashoffset="0" stroke-dasharray=" none" stroke=" none" stroke-linecap=" butt" d="m41.08001,-93.19l3.46,-0.39l-4.01,-4.62l-4.18,-1.07l-4.29,-2.4l5.49,-1.09l0.81,-2.7l-2.67,-1.3l-6.53,-2.69l2.44,-4.39l-2.99,0.19l-2.91,-2.06l-6.17,2.19l0.04,-3.84l-3.05,-0.39l-1.72,-1.97l-4,1.44l-3.29,-3.63l-1.06,6.86l-1.58,-7.15l-3.51,-0.35l-0.76,2.72c0,0 -1.39,-0.95 -2.46,0.32l-0.34,0.64l0.42,2.65l-2.27,-0.9l-2.11,-0.65c-3.19,-2.03 -7.9,-3.31 -12.86,-3.31c-11.86,0 -24.52,5.61 -24.52,21.36c0,15.75 19.53,29.72 32.45,38.67c2.84,1.97 5.29,3.66 7.1,5.1l1.62,-2.04c-1.88,-1.48 -4.36,-3.2 -7.23,-5.19c-12.47,-8.65 -31.33,-21.71 -31.33,-36.53c0,-17.4 16.78,-18.75 21.92,-18.75c5.14,0 8.97,1.28 11.49,2.91l-0.19,3.92l-3.67,-2.8l-3.95,-0.17l1.96,2.6l-2.93,-0.08l-3.4,0.12l1.06,1.94l-2.86,0.53l3.37,1.89l-0.22,1.96l3.84,1.76l1.88,2l-3.78,-0.17l-5.33,1.12l4.79,3.22l-2.49,0.73l3.72,1.25l3.13,3.88l2.35,-0.07l3.91,1.31l-0.18,2.69l1.85,1.98l2.26,-2.16l0.18,5.43l1.38,-0.55l1.04,1.08l2.75,-3.67l0.85,5.47l3.43,1.64l1.64,-3.97l2.02,4.11l3.46,-0.02l1.44,-2.7l4.02,1.75l1.92,-3.01l5.24,1.16l2.31,-2.92l-0.57,-2.15l2.91,1.95l-0.26,-1.64l3.68,0.53l-1.3,-2.59l2.74,0.04l-6.68,-3.65l6.44,1.73l2.46,-0.6l-1.46,-2.05l4.44,0.98l-0.56,-1.41l-0.04,-0.03zm-42.58,-18.49c0.44,1.36 0.3,3.96 0.02,3.92c-2.93,-3.08 -1.56,-6.59 -1.56,-6.59c0,0 1.09,1.33 1.54,2.68l0,-0.01zm-12.02,2.93c6.04,1.99 6.42,7.21 6.42,7.21c0,0 -2.41,-1.87 -3.9,-3.27c-1.5,-1.39 -2.95,-3.82 -2.52,-3.94zm9.72,13.81c-6.78,0.33 -9.17,-4.74 -9.17,-4.74c0,0 2.75,0.69 4.77,1.51c2.03,0.82 4.78,2.95 4.4,3.22l0,0.01zm-0.99,-9.12c0,0 1.48,0.58 2.42,1.44c0.94,0.87 1.94,2.98 1.68,3.05c-3.72,-1.17 -4.11,-4.5 -4.11,-4.5l0.01,0.01zm10.61,17.14c-5.95,-1.67 -6.59,-6.83 -6.59,-6.83c0,0 2.65,1.64 4.16,2.95c1.51,1.31 2.83,3.75 2.43,3.88zm7.42,-1.65c3.7,-2.63 7.27,-0.79 7.27,-0.79c0,0 -1.57,0.97 -3.08,1.26c-1.51,0.29 -4.29,-0.18 -4.19,-0.47zm9.32,3.39c-1.3,0.3 -3.69,-0.06 -3.61,-0.32c3.17,-2.45 6.26,-0.89 6.26,-0.89c0,0 -1.35,0.91 -2.65,1.21z" vector-effect="non-scaling-stroke"/>
    </g>
    <g id="Ebene_1" transform="matrix(1 0 0 1 -121.06 9.34)">
     <path id="svg_6" fill-rule=" evenodd" fill=" rgb(153,14,39)" stroke-miterlimit="4" stroke-linejoin=" miter" stroke-dashoffset="0" stroke-dasharray=" none" stroke=" none" stroke-linecap=" butt" d="m7.86,-89.28c0,-1.09 -1.03,-2.28 -2.74,-2.28l-4.64,0c-0.67,0 -1.28,-0.47 -1.28,-1.15l0,-5.78c0,-0.47 0.43,-1.09 1.35,-1.09c0.85,0 1.28,0.57 1.28,1.09l0,4.69l6.03,0l0,-7.24c0,-1.09 -1.03,-2.28 -2.74,-2.28l-9.22,0c-1.71,0 -2.74,1.19 -2.74,2.28l0,11.14c0,1.09 1.03,2.29 2.74,2.29l4.64,0c0.66,0 1.28,0.46 1.28,1.14l0,6.41c0,0.52 -0.43,1.15 -1.28,1.15c-0.92,0 -1.35,-0.57 -1.35,-1.15l0,-5.31l-6.04,0l0,7.9c0,1.09 1.03,2.29 2.74,2.29l9.22,0c1.71,0 2.74,-1.2 2.74,-2.29l0,-11.81l0.01,0z" vector-effect="non-scaling-stroke"/>
    </g>
    <g id="Ebene_1" transform="matrix(1 0 0 1 -102.88 9.32)">
     <path id="svg_7" fill-rule=" evenodd" fill=" rgb(153,14,39)" stroke-miterlimit="4" stroke-linejoin=" miter" stroke-dashoffset="0" stroke-dasharray=" none" stroke=" none" stroke-linecap=" butt" d="m1.82,-80.04c0,0.52 -0.43,1.15 -1.28,1.15c-0.85,0 -1.35,-0.63 -1.35,-1.15l0,-18.42c0,-0.47 0.49,-1.09 1.35,-1.09c0.86,0 1.28,0.57 1.28,1.09l0,18.42zm5.98,2.6l0,-23.57c0,-1.15 -1.04,-2.34 -2.69,-2.34l-9.22,0c-1.65,0 -2.69,1.19 -2.69,2.34l0,23.57c0,1.09 1.03,2.29 2.69,2.29l9.22,0c1.64,0 2.69,-1.2 2.69,-2.29" vector-effect="non-scaling-stroke"/>
    </g>
    <g id="Ebene_1" transform="matrix(1 0 0 1 -88.98 7.6)">
     <rect id="svg_8" fill-rule=" nonzero" fill=" rgb(153,14,39)" stroke-miterlimit="4" stroke-linejoin=" miter" stroke-dashoffset="0" stroke-linecap=" butt" stroke-dasharray=" none" stroke=" none" height="31.64" width="6.05" y="-105.07" x="-2.525" vector-effect="non-scaling-stroke"/>
    </g>
    <g id="Ebene_1" transform="matrix(1 0 0 1 -79.51 9.32)">
     <path id="svg_9" fill-rule=" evenodd" fill=" rgb(153,14,39)" stroke-miterlimit="4" stroke-linejoin=" miter" stroke-dashoffset="0" stroke-dasharray=" none" stroke=" none" stroke-linecap=" butt" d="m3.49,-97.53l-5.98,0l0,22.38l5.98,0l0,-22.38zm0,-5.82l-5.98,0l0,3.96l5.98,0l0,-3.96z" vector-effect="non-scaling-stroke"/>
    </g>
    <g id="Ebene_1" transform="matrix(1 0 0 1 -65.7 7.57)">
     <path id="svg_10" fill-rule=" evenodd" fill=" rgb(153,14,39)" stroke-miterlimit="4" stroke-linejoin=" miter" stroke-dashoffset="0" stroke-dasharray=" none" stroke=" none" stroke-linecap=" butt" d="m1.81,-77.15l-1.34,0c-0.8,0 -1.35,-0.57 -1.35,-1.1l0,-18.47c0,-0.63 0.5,-1.15 1.35,-1.15l1.34,0l0,20.71l0,0.01zm5.98,3.74l0,-31.68l-5.98,0l0,3.48l-5.92,0c-1.64,0 -2.67,1.19 -2.67,2.34l0,23.57c0,1.09 1.03,2.29 2.67,2.29l11.9,0z" vector-effect="non-scaling-stroke"/>
    </g>
    <g id="Ebene_1" transform="matrix(1 0 0 1 -47.54 9.29)">
     <path id="svg_11" fill-rule=" evenodd" fill=" rgb(153,14,39)" stroke-miterlimit="4" stroke-linejoin=" miter" stroke-dashoffset="0" stroke-dasharray=" none" stroke=" none" stroke-linecap=" butt" d="m1.81,-87.77l0,7.7c0,0.52 -0.48,1.15 -1.34,1.15c-0.86,0 -1.35,-0.63 -1.35,-1.15l0,-6.65c0,-0.53 0.55,-1.05 1.28,-1.05l1.41,0zm5.98,12.59l0,-25.85c0,-1.1 -1.03,-2.29 -2.69,-2.29l-9.21,0c-1.65,0 -2.69,1.19 -2.69,2.29l0,7.28l5.98,0l0,-4.69c0,-0.57 0.43,-1.15 1.28,-1.15c0.85,0 1.34,0.63 1.34,1.15l0,6.92l-5.91,0c-1.65,0 -2.69,1.19 -2.69,2.28l0,11.77c0,1.09 1.03,2.28 2.69,2.28l2.74,0c1.64,0 2.62,-0.99 3.05,-1.98c0.07,-0.1 0.19,-0.1 0.19,0l0,1.98l5.91,0l0.01,0.01z" vector-effect="non-scaling-stroke"/>
    </g>
    <g id="Ebene_1" transform="matrix(1 0 0 1 -29.36 9.32)">
     <path id="svg_12" fill-rule=" evenodd" fill=" rgb(153,14,39)" stroke-miterlimit="4" stroke-linejoin=" miter" stroke-dashoffset="0" stroke-dasharray=" none" stroke=" none" stroke-linecap=" butt" d="m7.79,-87.54l0,-13.47c0,-1.09 -1.03,-2.34 -2.68,-2.34l-2.75,0c-1.16,0 -2.44,0.62 -3.05,1.98c0,0.1 -0.12,0.16 -0.12,0l0,-1.98l-5.98,0l0,28.2l5.91,0l0.07,-23.31c0,-0.47 0.43,-1.15 1.28,-1.15c0.91,0 1.34,0.63 1.34,1.15l0,10.92l5.98,0z" vector-effect="non-scaling-stroke"/>
    </g>
    <g id="Ebene_1" transform="matrix(1 0 0 1 -15.99 9.32)">
     <path id="svg_13" fill-rule=" evenodd" fill=" rgb(153,14,39)" stroke-miterlimit="4" stroke-linejoin=" miter" stroke-dashoffset="0" stroke-dasharray=" none" stroke=" none" stroke-linecap=" butt" d="m3.49,-97.53l-5.98,0l0,22.38l5.98,0l0,-22.38zm0,-5.82l-5.98,0l0,3.96l5.98,0l0,-3.96z" vector-effect="non-scaling-stroke"/>
    </g>
    <g id="Ebene_1" transform="matrix(1 0 0 1 -2.64 7.59)">
     <path id="svg_14" fill-rule=" evenodd" fill=" rgb(153,14,39)" stroke-miterlimit="4" stroke-linejoin=" miter" stroke-dashoffset="0" stroke-dasharray=" none" stroke=" none" stroke-linecap=" butt" d="m8.31,-97.67l0,-3.96l-8.61,0l0,-3.44l-5.98,0l0,3.44l-1.03,0l0,3.96l1.03,0l0,21.95c0,1.09 1.03,2.29 2.74,2.29l9.16,0c1.64,0 2.69,-1.2 2.69,-2.29l0,-14.09l-5.98,0l0,11.5c0,0.46 -0.44,1.15 -1.35,1.15c-0.85,0 -1.28,-0.63 -1.28,-1.15l0,-19.35l8.61,0l0,-0.01z" vector-effect="non-scaling-stroke"/>
    </g>
    <g id="Ebene_1" transform="matrix(1 0 0 1 15.49 9.32)">
     <path id="svg_15" fill-rule=" evenodd" fill=" rgb(153,14,39)" stroke-miterlimit="4" stroke-linejoin=" miter" stroke-dashoffset="0" stroke-dasharray=" none" stroke=" none" stroke-linecap=" butt" d="m1.82,-85.04l0,4.79c0,0.53 -0.43,1.36 -1.35,1.36c-0.85,0 -1.28,-0.89 -1.28,-1.36l0,-3.69c0,-0.57 0.49,-1.1 1.23,-1.1l1.4,0zm5.98,9.89l0,-20.08c0,-1.09 -1.04,-2.29 -2.69,-2.29l-9.16,0c-1.64,0 -2.74,1.2 -2.74,2.29l0,4.73l5.98,0l0,-2.55c0,-0.52 0.43,-1.14 1.28,-1.14c0.92,0 1.35,0.62 1.35,1.14l0,4.79l-5.87,0c-1.64,0 -2.74,1.2 -2.74,2.29l0,8.53c0,1.09 1.03,2.29 2.74,2.29l2.69,0c1.65,0 2.63,-0.99 3.06,-1.98c0.06,-0.1 0.18,-0.16 0.18,0l0,1.98l5.92,0zm-8.18,-28.2l-5.49,0l0,3.96l5.49,0l0,-3.96zm7.33,0l-5.5,0l0,3.96l5.5,0l0,-3.96z" vector-effect="non-scaling-stroke"/>
    </g>
    <g id="Ebene_1" transform="matrix(1 0 0 1 33.2 7.59)">
     <path id="svg_16" fill-rule=" evenodd" fill=" rgb(153,14,39)" stroke-miterlimit="4" stroke-linejoin=" miter" stroke-dashoffset="0" stroke-dasharray=" none" stroke=" none" stroke-linecap=" butt" d="m8.30999,-97.67l0,-3.96l-8.6,0l0,-3.44l-5.98,0l0,3.44l-1.04,0l0,3.96l1.04,0l0,21.95c0,1.09 1.03,2.29 2.74,2.29l9.15,0c1.65,0 2.69,-1.2 2.69,-2.29l0,-14.09l-5.98,0l0,11.5c0,0.46 -0.43,1.15 -1.34,1.15c-0.86,0 -1.28,-0.63 -1.28,-1.15l0,-19.35l8.6,0l0,-0.01z" vector-effect="non-scaling-stroke"/>
    </g>
    <g id="Ebene_1" transform="matrix(1 0 0 1 -72.23 -26.55)">
     <path id="svg_17" fill-rule=" evenodd" fill=" rgb(32,86,43)" stroke-miterlimit="4" stroke-linejoin=" miter" stroke-dashoffset="0" stroke-dasharray=" none" stroke=" none" stroke-linecap=" butt" d="m5.66,-98.39c-1.65,-0.32 -3.3,-0.72 -4.99,-0.72c-3.61,0 -5.96,2.48 -5.96,5.24c0,2.19 1.42,3.63 3.44,4.6l2.89,1.36c1.5,0.72 3.34,1.63 3.34,3.98c0,2.35 -1.98,3.64 -4.27,3.64c-2.29,0 -4.33,-1.68 -4.54,-4.15l-0.81,0l0.11,4.38c2.03,0.64 4.35,0.67 4.79,0.67c4.46,0 6.64,-2.44 6.64,-5.78c0,-2.67 -2.06,-4.11 -3.98,-4.99l-2.45,-1.12c-2.22,-1.02 -3.02,-2.11 -3.02,-3.66c0,-1.74 1.42,-3.16 3.63,-3.16c4.03,0 4.25,3.35 4.28,4.2l0.9,0l0,-4.5l0,0.01z" vector-effect="non-scaling-stroke"/>
    </g>
    <g id="Ebene_1" transform="matrix(1 0 0 1 -59.98 -24.87)">
     <path id="svg_18" fill-rule=" evenodd" fill=" rgb(32,86,43)" stroke-miterlimit="4" stroke-linejoin=" miter" stroke-dashoffset="0" stroke-dasharray=" none" stroke=" none" stroke-linecap=" butt" d="m-4.27,-92.24l2.68,0l0,6.23c0,1.17 0.11,2.54 1.04,3.55c1.01,1.09 2.72,1.22 2.99,1.22c0.24,0 0.45,-0.02 0.64,-0.1l2.19,-1.84l-0.4,-0.46c-0.43,0.27 -1.22,0.7 -2.1,0.7c-1.88,0 -2.33,-1.79 -2.33,-3.24l0,-6.06l3.87,0l0.38,-1.12l-4.25,0l0,-3.9l-0.38,0.08c-1.11,2.14 -2.66,3.66 -4.33,4.68l0,0.27l0,-0.01z" vector-effect="non-scaling-stroke"/>
    </g>
    <g id="Ebene_1" transform="matrix(1 0 0 1 -51.7 -25.81)">
     <path id="svg_19" fill-rule=" evenodd" fill=" rgb(32,86,43)" stroke-miterlimit="4" stroke-linejoin=" miter" stroke-dashoffset="0" stroke-dasharray=" none" stroke=" none" stroke-linecap=" butt" d="m-0.83,-96.69c0,0.74 0.58,1.34 1.34,1.34c0.76,0 1.34,-0.6 1.34,-1.34c0,-0.74 -0.6,-1.34 -1.34,-1.34c-0.74,0 -1.34,0.58 -1.34,1.34m-1.79,16.22c1.01,-0.03 2.27,-0.09 3.12,-0.09c0.85,0 2.1,0.06 3.12,0.09l0,-0.81l-0.54,0c-0.96,0 -1.57,-0.32 -1.57,-2.21l0,-9.19l-0.27,0c-0.74,0.54 -2.58,1.49 -3.74,1.92l0,0.81c0.3,-0.14 0.75,-0.29 1.16,-0.29c0.51,0 0.82,0.29 0.82,1.36l0,5.39c0,1.9 -0.61,2.21 -1.57,2.21l-0.53,0l0,0.81z" vector-effect="non-scaling-stroke"/>
    </g>
    <g id="Ebene_1" transform="matrix(1 0 0 1 -42.34 -27.55)">
     <path id="svg_20" fill-rule=" evenodd" fill=" rgb(32,86,43)" stroke-miterlimit="4" stroke-linejoin=" miter" stroke-dashoffset="0" stroke-dasharray=" none" stroke=" none" stroke-linecap=" butt" d="m-4.09,-78.73c0.83,-0.03 1.93,-0.09 3.12,-0.09c1.12,0 2.07,0.06 2.87,0.09l0,-0.81l-0.4,0c-1.38,0 -1.57,-0.26 -1.57,-2.35l0,-7.67l3.55,0l0.56,-1.12l-4.11,0l0,-4.97c0,-1.61 0.78,-3.1 2.46,-3.1c1.98,0 2.53,1.65 2.64,2.52l0.58,0l0,-3.29c-0.74,-0.13 -1.38,-0.24 -2.13,-0.24c-4.09,0 -5.59,2.91 -5.59,5.53l0,3.55l-2.29,0l-0.21,1.12l2.51,0l0,7.67c0,2.09 -0.18,2.35 -1.57,2.35l-0.4,0l0,0.81l-0.02,0z" vector-effect="non-scaling-stroke"/>
    </g>
    <g id="Ebene_1" transform="matrix(1 0 0 1 -34.29 -24.87)">
     <path id="svg_21" fill-rule=" evenodd" fill=" rgb(32,86,43)" stroke-miterlimit="4" stroke-linejoin=" miter" stroke-dashoffset="0" stroke-dasharray=" none" stroke=" none" stroke-linecap=" butt" d="m-4.26,-92.24l2.68,0l0,6.23c0,1.17 0.1,2.54 1.03,3.55c1.02,1.09 2.73,1.22 3,1.22c0.24,0 0.45,-0.02 0.64,-0.1l2.18,-1.84l-0.39,-0.46c-0.43,0.27 -1.24,0.7 -2.11,0.7c-1.87,0 -2.33,-1.79 -2.33,-3.24l0,-6.06l3.88,0l0.37,-1.12l-4.25,0l0,-3.9l-0.37,0.08c-1.12,2.14 -2.68,3.66 -4.33,4.68l0,0.27l0,-0.01z" vector-effect="non-scaling-stroke"/>
    </g>
    <g id="Ebene_1" transform="matrix(1 0 0 1 -22.07 -22.96)">
     <path id="svg_22" fill-rule=" evenodd" fill=" rgb(32,86,43)" stroke-miterlimit="4" stroke-linejoin=" miter" stroke-dashoffset="0" stroke-dasharray=" none" stroke=" none" stroke-linecap=" butt" d="m-4.56,-88.46c0,1.9 0.08,2.94 0.75,3.88c0.64,0.88 1.61,1.44 2.93,1.44c1.61,0 3.18,-1.09 4.55,-1.94c0.02,0.66 0.1,1.49 0.32,2.02l0.19,0.09l3.47,-1.51l0,-0.8c-0.46,0.16 -1.1,0.45 -1.45,0.45c-0.31,0 -0.61,-0.1 -0.61,-1.28l0,-9.43l-0.33,0c-1.26,0.7 -2.54,1.32 -3.66,1.69l0,0.8c0.44,-0.18 0.81,-0.29 1.1,-0.29c0.62,0 0.85,0.4 0.85,1.28l0,6.01c-1.05,0.72 -2.38,1.53 -3.32,1.53c-2.24,0 -2.78,-1.76 -2.78,-3.99l0,-7.02l-0.33,0c-1.25,0.7 -2.53,1.32 -3.76,1.69l0,0.8c0.33,-0.18 0.75,-0.29 1.2,-0.29c0.62,0 0.85,0.4 0.85,1.28l0,3.61l0.03,-0.02z" vector-effect="non-scaling-stroke"/>
    </g>
    <g id="Ebene_1" transform="matrix(1 0 0 1 -6.97 -23.13)">
     <path id="svg_23" fill-rule=" evenodd" fill=" rgb(32,86,43)" stroke-miterlimit="4" stroke-linejoin=" miter" stroke-dashoffset="0" stroke-dasharray=" none" stroke=" none" stroke-linecap=" butt" d="m-6.26999,-83.15c0.85,-0.03 2.03,-0.09 2.93,-0.09c0.9,0 2.07,0.06 2.67,0.09l0,-0.81l-0.51,0c-1.04,0 -1.18,-0.21 -1.18,-1.42l0,-6.89c0.62,-0.58 1.88,-1.61 3,-1.61c0.91,0 1.5,0.3 1.84,0.64c0.74,0.73 0.88,1.42 0.88,2.87l0,4.19c0,1.65 -0.13,2.21 -1.26,2.21l-0.47,0l0,0.81c0.72,-0.03 1.94,-0.09 2.91,-0.09c0.91,0 2.11,0.06 2.75,0.09l0,-0.81l-0.4,0c-1.32,0 -1.5,-0.26 -1.5,-1.3l0,-4.83c0,-1.12 -0.08,-2.3 -0.58,-3.24c-0.81,-1.55 -2.36,-2.03 -3.26,-2.03c-1.74,0 -3.08,1.32 -4.07,2.35l0,-2.35l-0.27,0c-1.09,0.7 -2.37,1.32 -3.5,1.69l0,0.8c0.37,-0.18 0.72,-0.29 0.97,-0.29c0.61,0 0.93,0.4 0.93,2.81l0,4.54c0,1.55 -0.21,1.87 -1.42,1.87l-0.48,0l0,0.81l0.02,-0.01z" vector-effect="non-scaling-stroke"/>
    </g>
    <g id="Ebene_1" transform="matrix(1 0 0 1 7.44 -20.25)">
     <path id="svg_24" fill-rule=" evenodd" fill=" rgb(32,86,43)" stroke-miterlimit="4" stroke-linejoin=" miter" stroke-dashoffset="0" stroke-dasharray=" none" stroke=" none" stroke-linecap=" butt" d="m-2.73,-94.53c0,-1.66 1.09,-2.91 2.37,-2.91c1.36,0 2.62,1.03 2.62,3.6c0,1.55 -0.72,2.81 -2.43,2.81c-1.71,0 -2.56,-1.87 -2.56,-3.5m-1.18,10.92c0,-2.35 2.78,-2.35 3.82,-2.35c2.29,0 4.33,0.51 4.33,2.35c0,1.84 -1.92,2.46 -3.96,2.46c-3.1,0 -4.19,-1.24 -4.19,-2.46m10.32,-14.16l-4.36,0c-0.58,-0.27 -1.26,-0.48 -2.29,-0.48c-2.52,0 -4.52,1.71 -4.52,4.11c0,1.47 1.04,2.83 2.7,3.51l-0.21,0.13c-1.61,1.01 -2.25,1.57 -2.25,2.4c0,1.25 1.39,1.57 1.82,1.65l0,0.06c-1.34,0.24 -2.7,1.12 -2.7,2.8c0,2.75 3.53,3.34 5.47,3.34c2.83,0 5.67,-1.23 5.67,-3.94c0,-2.94 -2.19,-3.51 -5.63,-3.69c-1.51,-0.09 -2.81,-0.17 -2.81,-0.91c0,-0.51 1.15,-1.24 1.61,-1.53c0.18,0.03 0.61,0.08 1.11,0.08c1.63,0 4.28,-1.22 4.28,-3.92c0,-1.34 -0.56,-1.98 -0.97,-2.48l2.3,0l0.77,-1.12l0.01,-0.01z" vector-effect="non-scaling-stroke"/>
    </g>
    <g id="Ebene_1" transform="matrix(1 0 0 1 -88.9 37.89)">
     <path id="svg_25" fill-rule=" evenodd" fill=" rgb(32,86,43)" stroke-miterlimit="4" stroke-linejoin=" miter" stroke-dashoffset="0" stroke-dasharray=" none" stroke=" none" stroke-linecap=" butt" d="m-1.33,-90.3c0,-0.55 0.52,-1.88 1.88,-1.88c0.45,0 1.8,0.27 1.8,1.88l-3.68,0zm4.75,3.25c-0.36,0.25 -0.98,0.61 -2.07,0.61c-1.83,0 -2.63,-1.48 -2.69,-3.35l4.86,0l0,-0.16c0,-1.58 -1.03,-2.73 -2.87,-2.73c-1.69,0 -3.17,1.64 -3.17,3.37c0,1.59 1.07,3.48 3.44,3.48c1.13,0 1.9,-0.42 2.49,-0.79l0,-0.44l0.01,0.01z" vector-effect="non-scaling-stroke"/>
    </g>
    <g id="Ebene_1" transform="matrix(1 0 0 1 -83.35 36.36)">
     <path id="svg_26" fill-rule=" evenodd" fill=" rgb(32,86,43)" stroke-miterlimit="4" stroke-linejoin=" miter" stroke-dashoffset="0" stroke-dasharray=" none" stroke=" none" stroke-linecap=" butt" d="m-0.23,-93.37c0,0.42 0.33,0.74 0.73,0.74c0.4,0 0.74,-0.32 0.74,-0.74c0,-0.42 -0.33,-0.73 -0.74,-0.73c-0.41,0 -0.73,0.32 -0.73,0.73m-0.99,8.97c0.56,-0.01 1.25,-0.05 1.72,-0.05c0.47,0 1.17,0.03 1.73,0.05l0,-0.45l-0.29,0c-0.53,0 -0.88,-0.17 -0.88,-1.22l0,-5.08l-0.15,0c-0.41,0.3 -1.43,0.83 -2.07,1.07l0,0.44c0.17,-0.07 0.42,-0.16 0.64,-0.16c0.28,0 0.45,0.16 0.45,0.75l0,2.98c0,1.06 -0.34,1.22 -0.87,1.22l-0.29,0l0,0.45l0.01,0z" vector-effect="non-scaling-stroke"/>
    </g>
    <g id="Ebene_1" transform="matrix(1 0 0 1 -72.41 35.73)">
     <path id="svg_27" fill-rule=" evenodd" fill=" rgb(32,86,43)" stroke-miterlimit="4" stroke-linejoin=" miter" stroke-dashoffset="0" stroke-dasharray=" none" stroke=" none" stroke-linecap=" butt" d="m-5.02,-83.77c0.36,-0.03 0.9,-0.04 1.46,-0.04c0.7,0 1.3,0.01 1.82,0.04l0,-0.45l-0.33,0c-0.46,0 -0.61,-0.2 -0.61,-0.47c0,-0.33 0.15,-0.76 0.25,-1.06l0.79,-2.34l3.44,0l1.08,2.66c0.06,0.12 0.2,0.53 0.2,0.73c0,0.31 -0.27,0.47 -0.75,0.47l-0.36,0l0,0.45c0.54,-0.03 1.25,-0.04 2.04,-0.04c0.79,0 1.45,0.01 2.01,0.04l0,-0.45l-0.31,0c-0.68,0 -1.14,-0.57 -1.5,-1.43l-3.79,-9.06l-0.28,0l-3.38,8.89c-0.46,1.24 -0.79,1.6 -1.6,1.6l-0.18,0l0,0.45l0,0.01zm6.6,-4.88l-3.02,0l1.37,-4.05l1.65,4.05z" vector-effect="non-scaling-stroke"/>
    </g>
    <g id="Ebene_1" transform="matrix(1 0 0 1 -64.03 37.83)">
     <path id="svg_28" fill-rule=" evenodd" fill=" rgb(32,86,43)" stroke-miterlimit="4" stroke-linejoin=" miter" stroke-dashoffset="0" stroke-dasharray=" none" stroke=" none" stroke-linecap=" butt" d="m-1.93,-85.87c0.47,-0.01 1.12,-0.05 1.62,-0.05c0.5,0 1.15,0.03 1.48,0.05l0,-0.45l-0.28,0c-0.57,0 -0.65,-0.11 -0.65,-0.78l0,-2.64c0,-1.44 0.93,-1.88 1.52,-1.88c0.41,0 0.84,0.11 0.94,0.53l0.24,0l0,-1.39c-0.19,-0.06 -0.47,-0.15 -0.88,-0.15c-0.75,0 -1.39,0.54 -1.88,1.54l-0.03,0l0,-1.54l-0.15,0c-0.61,0.46 -1.32,0.8 -1.93,1.07l0,0.44c0.2,-0.1 0.44,-0.16 0.57,-0.16c0.34,0 0.47,0.22 0.47,0.71l0,3.21c0,0.87 -0.11,1.03 -0.79,1.03l-0.26,0l0,0.45l0.01,0.01z" vector-effect="non-scaling-stroke"/>
    </g>
    <g id="Ebene_1" transform="matrix(1 0 0 1 -57.6 35.4)">
     <path id="svg_29" fill-rule=" evenodd" fill=" rgb(32,86,43)" stroke-miterlimit="4" stroke-linejoin=" miter" stroke-dashoffset="0" stroke-dasharray=" none" stroke=" none" stroke-linecap=" butt" d="m-0.93,-88.79c0.56,-0.34 1.02,-0.57 1.62,-0.57c1.76,0 2.42,1.71 2.42,2.83c0,1.55 -0.91,2.75 -2.23,2.75c-0.68,0 -1.2,-0.22 -1.81,-0.52l0,-4.5l0,0.01zm-1.11,3.47c0,0.72 -0.07,1.19 -0.11,1.54c0.86,0.21 2.1,0.44 2.75,0.44c2.03,0 3.63,-1.5 3.63,-3.5c0,-1.73 -1.09,-3.36 -2.81,-3.36c-0.76,0 -1.56,0.38 -2.35,0.84l0,-3c0,-1.43 0.02,-2.46 0.04,-2.8l-0.15,0c-0.84,0.48 -1.51,0.8 -2.18,1.06l0,0.5c0.11,-0.05 0.37,-0.16 0.62,-0.16c0.37,0 0.55,0.28 0.55,0.73l0,7.7l0.01,0.01z" vector-effect="non-scaling-stroke"/>
    </g>
    <g id="Ebene_1" transform="matrix(1 0 0 1 -49.55 37.89)">
     <path id="svg_30" fill-rule=" evenodd" fill=" rgb(32,86,43)" stroke-miterlimit="4" stroke-linejoin=" miter" stroke-dashoffset="0" stroke-dasharray=" none" stroke=" none" stroke-linecap=" butt" d="m-1.32,-90.3c0,-0.55 0.52,-1.88 1.88,-1.88c0.46,0 1.8,0.27 1.8,1.88l-3.67,0l-0.01,0zm4.75,3.25c-0.35,0.25 -0.98,0.61 -2.07,0.61c-1.83,0 -2.63,-1.48 -2.69,-3.35l4.85,0l0,-0.16c0,-1.58 -1.03,-2.73 -2.87,-2.73c-1.67,0 -3.17,1.64 -3.17,3.37c0,1.59 1.08,3.48 3.44,3.48c1.14,0 1.91,-0.42 2.5,-0.79l0,-0.44l0.01,0.01z" vector-effect="non-scaling-stroke"/>
    </g>
    <g id="Ebene_1" transform="matrix(1 0 0 1 -43.99 36.36)">
     <path id="svg_31" fill-rule=" evenodd" fill=" rgb(32,86,43)" stroke-miterlimit="4" stroke-linejoin=" miter" stroke-dashoffset="0" stroke-dasharray=" none" stroke=" none" stroke-linecap=" butt" d="m-0.24,-93.37c0,0.42 0.33,0.74 0.74,0.74c0.41,0 0.73,-0.32 0.73,-0.74c0,-0.42 -0.31,-0.73 -0.73,-0.73c-0.42,0 -0.74,0.32 -0.74,0.73m-0.99,8.97c0.56,-0.01 1.26,-0.05 1.73,-0.05c0.47,0 1.17,0.03 1.73,0.05l0,-0.45l-0.3,0c-0.53,0 -0.86,-0.17 -0.86,-1.22l0,-5.08l-0.15,0c-0.42,0.3 -1.44,0.83 -2.07,1.07l0,0.44c0.16,-0.07 0.4,-0.16 0.63,-0.16c0.28,0 0.46,0.16 0.46,0.75l0,2.98c0,1.06 -0.34,1.22 -0.88,1.22l-0.29,0l0,0.45z" vector-effect="non-scaling-stroke"/>
    </g>
    <g id="Ebene_1" transform="matrix(1 0 0 1 -39.28 36.88)">
     <path id="svg_32" fill-rule=" evenodd" fill=" rgb(32,86,43)" stroke-miterlimit="4" stroke-linejoin=" miter" stroke-dashoffset="0" stroke-dasharray=" none" stroke=" none" stroke-linecap=" butt" d="m-2.13,-90.9l1.47,0l0,3.44c0,0.65 0.06,1.4 0.57,1.97c0.56,0.59 1.51,0.67 1.65,0.67c0.14,0 0.26,-0.01 0.36,-0.06l1.21,-1.02l-0.22,-0.25c-0.24,0.15 -0.67,0.38 -1.17,0.38c-1.03,0 -1.28,-0.99 -1.28,-1.79l0,-3.35l2.14,0l0.21,-0.63l-2.35,0l0,-2.15l-0.21,0.05c-0.62,1.18 -1.47,2.02 -2.38,2.59l0,0.15z" vector-effect="non-scaling-stroke"/>
    </g>
    <g id="Ebene_1" transform="matrix(1 0 0 1 -34.02 37.88)">
     <path id="svg_33" fill-rule=" evenodd" fill=" rgb(32,86,43)" stroke-miterlimit="4" stroke-linejoin=" miter" stroke-dashoffset="0" stroke-dasharray=" none" stroke=" none" stroke-linecap=" butt" d="m2.48,-92.37c-0.39,-0.11 -1.03,-0.3 -1.8,-0.3c-1.68,0 -2.29,1.1 -2.29,1.85c0,0.99 0.8,1.43 1.18,1.62l1.11,0.56c0.48,0.25 1.04,0.52 1.04,1.21c0,0.82 -0.71,1.1 -1.4,1.1c-0.91,0 -1.52,-0.57 -1.64,-1.62l-0.4,0c0.02,0.28 0.05,0.54 0.05,0.87c0,0.33 -0.02,0.59 -0.05,0.88c0.53,0.18 1.2,0.38 2.07,0.38c1.58,0 2.38,-0.94 2.38,-2.02c0,-1.13 -0.91,-1.55 -1.38,-1.78l-0.81,-0.37c-0.58,-0.26 -1.15,-0.58 -1.15,-1.19c0,-0.42 0.33,-0.99 1.26,-0.99c1.2,0 1.42,0.74 1.6,1.33l0.29,0l-0.06,-1.53z" vector-effect="non-scaling-stroke"/>
    </g>
    <g id="Ebene_1" transform="matrix(1 0 0 1 -29.24 35.35)">
     <path id="svg_34" fill-rule=" evenodd" fill=" rgb(32,86,43)" stroke-miterlimit="4" stroke-linejoin=" miter" stroke-dashoffset="0" stroke-dasharray=" none" stroke=" none" stroke-linecap=" butt" d="m-1.22,-93.54c0.11,-0.05 0.37,-0.16 0.62,-0.16c0.37,0 0.55,0.28 0.55,0.73l0,7.9c0,1.06 -0.35,1.23 -0.88,1.23l-0.29,0l0,0.45c0.56,-0.01 1.25,-0.05 1.73,-0.05c0.48,0 1.16,0.03 1.72,0.05l0,-0.45l-0.29,0c-0.53,0 -0.88,-0.17 -0.88,-1.23l0,-7.24c0,-1.43 0.02,-2.46 0.04,-2.8l-0.15,0c-0.84,0.48 -1.51,0.8 -2.18,1.06l0,0.51l0.01,0z" vector-effect="non-scaling-stroke"/>
    </g>
    <g id="Ebene_1" transform="matrix(1 0 0 1 -23.23 37.88)">
     <path id="svg_35" fill-rule=" evenodd" fill=" rgb(32,86,43)" stroke-miterlimit="4" stroke-linejoin=" miter" stroke-dashoffset="0" stroke-dasharray=" none" stroke=" none" stroke-linecap=" butt" d="m-2.87,-89.35c0,2.23 1.72,3.53 3.37,3.53c1.99,0 3.38,-1.51 3.38,-3.25c0,-1.98 -1.31,-3.61 -3.44,-3.61c-2.13,0 -3.31,1.74 -3.31,3.33m5.51,0.56c0,1.4 -0.52,2.46 -1.91,2.46c-1.6,0 -2.35,-1.88 -2.35,-3.3c0,-1.66 0.9,-2.54 1.81,-2.54c1.63,0 2.45,1.69 2.45,3.38" vector-effect="non-scaling-stroke"/>
    </g>
    <g id="Ebene_1" transform="matrix(1 0 0 1 -16.53 37.88)">
     <path id="svg_36" fill-rule=" evenodd" fill=" rgb(32,86,43)" stroke-miterlimit="4" stroke-linejoin=" miter" stroke-dashoffset="0" stroke-dasharray=" none" stroke=" none" stroke-linecap=" butt" d="m2.48,-92.37c-0.39,-0.11 -1.03,-0.3 -1.8,-0.3c-1.68,0 -2.29,1.1 -2.29,1.85c0,0.99 0.8,1.43 1.18,1.62l1.11,0.56c0.48,0.25 1.04,0.52 1.04,1.21c0,0.82 -0.71,1.1 -1.4,1.1c-0.91,0 -1.52,-0.57 -1.63,-1.62l-0.42,0c0.02,0.28 0.05,0.54 0.05,0.87c0,0.33 -0.02,0.59 -0.05,0.88c0.53,0.18 1.2,0.38 2.07,0.38c1.6,0 2.39,-0.94 2.39,-2.02c0,-1.13 -0.92,-1.55 -1.39,-1.78l-0.81,-0.37c-0.57,-0.26 -1.14,-0.58 -1.14,-1.19c0,-0.42 0.33,-0.99 1.25,-0.99c1.2,0 1.42,0.74 1.6,1.33l0.29,0l-0.06,-1.53l0.01,0z" vector-effect="non-scaling-stroke"/>
    </g>
    <g id="Ebene_1" transform="matrix(1 0 0 1 -11.75 36.36)">
     <path id="svg_37" fill-rule=" evenodd" fill=" rgb(32,86,43)" stroke-miterlimit="4" stroke-linejoin=" miter" stroke-dashoffset="0" stroke-dasharray=" none" stroke=" none" stroke-linecap=" butt" d="m-0.23,-93.37c0,0.42 0.33,0.74 0.74,0.74c0.41,0 0.73,-0.32 0.73,-0.74c0,-0.42 -0.33,-0.73 -0.73,-0.73c-0.4,0 -0.74,0.32 -0.74,0.73m-0.99,8.97c0.56,-0.01 1.26,-0.05 1.73,-0.05c0.47,0 1.16,0.03 1.72,0.05l0,-0.45l-0.29,0c-0.53,0 -0.87,-0.17 -0.87,-1.22l0,-5.08l-0.16,0c-0.4,0.3 -1.43,0.83 -2.07,1.07l0,0.44c0.17,-0.07 0.42,-0.16 0.64,-0.16c0.28,0 0.46,0.16 0.46,0.75l0,2.98c0,1.06 -0.35,1.22 -0.88,1.22l-0.29,0l0,0.45l0.01,0z" vector-effect="non-scaling-stroke"/>
    </g>
    <g id="Ebene_1" transform="matrix(1 0 0 1 -5.85 39.44)">
     <path id="svg_38" fill-rule=" evenodd" fill=" rgb(32,86,43)" stroke-miterlimit="4" stroke-linejoin=" miter" stroke-dashoffset="0" stroke-dasharray=" none" stroke=" none" stroke-linecap=" butt" d="m-1.29,-92.18c0,-0.91 0.61,-1.61 1.32,-1.61c0.75,0 1.45,0.57 1.45,1.99c0,0.85 -0.4,1.55 -1.35,1.55c-0.95,0 -1.42,-1.03 -1.42,-1.93m-0.65,6.04c0,-1.29 1.54,-1.29 2.11,-1.29c1.27,0 2.39,0.28 2.39,1.29c0,1.01 -1.07,1.36 -2.19,1.36c-1.71,0 -2.32,-0.67 -2.32,-1.36m5.7,-7.82l-2.4,0c-0.33,-0.15 -0.7,-0.27 -1.27,-0.27c-1.38,0 -2.49,0.94 -2.49,2.28c0,0.81 0.57,1.56 1.49,1.93l-0.12,0.07c-0.89,0.56 -1.24,0.88 -1.24,1.34c0,0.69 0.76,0.87 1,0.91l0,0.03c-0.74,0.13 -1.49,0.62 -1.49,1.55c0,1.52 1.96,1.84 3.04,1.84c1.56,0 3.12,-0.68 3.12,-2.19c0,-1.62 -1.2,-1.93 -3.11,-2.03c-0.82,-0.05 -1.55,-0.09 -1.55,-0.51c0,-0.27 0.64,-0.67 0.89,-0.83c0.1,0.01 0.34,0.05 0.62,0.05c0.9,0 2.36,-0.69 2.36,-2.18c0,-0.73 -0.3,-1.09 -0.53,-1.37l1.27,0l0.43,-0.62l-0.02,0z" vector-effect="non-scaling-stroke"/>
    </g>
    <g id="Ebene_1" transform="matrix(1 0 0 1 1.48 35.35)">
     <path id="svg_39" fill-rule=" evenodd" fill=" rgb(32,86,43)" stroke-miterlimit="4" stroke-linejoin=" miter" stroke-dashoffset="0" stroke-dasharray=" none" stroke=" none" stroke-linecap=" butt" d="m-3.26,-83.39c0.47,-0.01 1.06,-0.05 1.71,-0.05c0.62,0 1.17,0.03 1.61,0.05l0,-0.45l-0.33,0c-0.54,0 -0.71,-0.16 -0.71,-0.82l0,-1.88l0.51,-0.37l2.11,2.69c0.18,0.24 0.35,0.52 0.47,0.83c0.38,-0.01 0.75,-0.05 1.12,-0.05c0.35,0 0.72,0.03 1.06,0.05l0,-0.45c-0.49,0 -0.94,0 -1.81,-1.09l-2.15,-2.7l1.11,-0.92c1.17,-0.96 1.44,-1.05 2.12,-1.05l0,-0.44c-0.38,0.01 -0.96,0.03 -1.45,0.03c-0.44,0 -0.91,-0.02 -1.24,-0.03l0,0.44c0.29,0 0.49,0.09 0.49,0.28c0,0.15 -0.15,0.29 -0.28,0.42l-2.08,1.8l0,-5.2c0,-1.43 0.02,-2.46 0.04,-2.8l-0.15,0c-0.84,0.48 -1.51,0.8 -2.18,1.06l0,0.51c0.11,-0.04 0.36,-0.16 0.62,-0.16c0.37,0 0.54,0.28 0.54,0.73l0,8.18c0,0.75 -0.15,0.94 -0.95,0.94l-0.21,0l0,0.45l0.03,0z" vector-effect="non-scaling-stroke"/>
    </g>
    <g id="Ebene_1" transform="matrix(1 0 0 1 8.66 37.89)">
     <path id="svg_40" fill-rule=" evenodd" fill=" rgb(32,86,43)" stroke-miterlimit="4" stroke-linejoin=" miter" stroke-dashoffset="0" stroke-dasharray=" none" stroke=" none" stroke-linecap=" butt" d="m-1.32,-90.3c0,-0.55 0.52,-1.88 1.88,-1.88c0.45,0 1.8,0.27 1.8,1.88l-3.68,0zm4.75,3.25c-0.36,0.25 -0.98,0.61 -2.07,0.61c-1.83,0 -2.63,-1.48 -2.69,-3.35l4.85,0l0,-0.16c0,-1.58 -1.03,-2.73 -2.87,-2.73c-1.69,0 -3.17,1.64 -3.17,3.37c0,1.59 1.07,3.48 3.44,3.48c1.13,0 1.9,-0.42 2.49,-0.79l0,-0.44l0.02,0.01z" vector-effect="non-scaling-stroke"/>
    </g>
    <g id="Ebene_1" transform="matrix(1 0 0 1 14.21 36.36)">
     <path id="svg_41" fill-rule=" evenodd" fill=" rgb(32,86,43)" stroke-miterlimit="4" stroke-linejoin=" miter" stroke-dashoffset="0" stroke-dasharray=" none" stroke=" none" stroke-linecap=" butt" d="m-0.23,-93.37c0,0.42 0.33,0.74 0.73,0.74c0.4,0 0.74,-0.32 0.74,-0.74c0,-0.42 -0.33,-0.73 -0.74,-0.73c-0.41,0 -0.73,0.32 -0.73,0.73m-0.99,8.97c0.56,-0.01 1.25,-0.05 1.72,-0.05c0.47,0 1.17,0.03 1.73,0.05l0,-0.45l-0.29,0c-0.53,0 -0.88,-0.17 -0.88,-1.22l0,-5.08l-0.15,0c-0.42,0.3 -1.43,0.83 -2.07,1.07l0,0.44c0.17,-0.07 0.42,-0.16 0.64,-0.16c0.28,0 0.46,0.16 0.46,0.75l0,2.98c0,1.06 -0.35,1.22 -0.88,1.22l-0.29,0l0,0.45l0.01,0z" vector-effect="non-scaling-stroke"/>
    </g>
    <g id="Ebene_1" transform="matrix(1 0 0 1 18.92 36.88)">
     <path id="svg_42" fill-rule=" evenodd" fill=" rgb(32,86,43)" stroke-miterlimit="4" stroke-linejoin=" miter" stroke-dashoffset="0" stroke-dasharray=" none" stroke=" none" stroke-linecap=" butt" d="m-2.12999,-90.9l1.48,0l0,3.44c0,0.65 0.06,1.4 0.57,1.97c0.56,0.59 1.51,0.67 1.65,0.67c0.13,0 0.25,-0.01 0.36,-0.06l1.2,-1.02l-0.21,-0.25c-0.24,0.15 -0.69,0.38 -1.17,0.38c-1.03,0 -1.28,-0.99 -1.28,-1.79l0,-3.35l2.14,0l0.2,-0.63l-2.34,0l0,-2.15l-0.21,0.05c-0.62,1.18 -1.47,2.02 -2.39,2.59l0,0.15z" vector-effect="non-scaling-stroke"/>
    </g>
    <g id="Ebene_1" transform="matrix(1 0 0 1 29.79 37.93)">
     <path id="svg_43" fill-rule=" evenodd" fill=" rgb(32,86,43)" stroke-miterlimit="4" stroke-linejoin=" miter" stroke-dashoffset="0" stroke-dasharray=" none" stroke=" none" stroke-linecap=" butt" d="m-2.31,-88.81c0,1.05 0.04,1.62 0.42,2.14c0.35,0.48 0.89,0.8 1.62,0.8c0.89,0 1.76,-0.61 2.52,-1.08c0.01,0.37 0.06,0.83 0.17,1.12l0.11,0.05l1.91,-0.83l0,-0.44c-0.25,0.09 -0.6,0.25 -0.8,0.25c-0.17,0 -0.34,-0.06 -0.34,-0.71l0,-5.21l-0.18,0c-0.68,0.38 -1.39,0.73 -2.02,0.93l0,0.45c0.24,-0.11 0.45,-0.17 0.61,-0.17c0.35,0 0.47,0.23 0.47,0.71l0,3.33c-0.57,0.39 -1.31,0.84 -1.83,0.84c-1.24,0 -1.53,-0.98 -1.53,-2.2l0,-3.89l-0.18,0c-0.7,0.38 -1.4,0.73 -2.08,0.93l0,0.45c0.18,-0.11 0.42,-0.17 0.66,-0.17c0.34,0 0.47,0.23 0.47,0.71l0,2l0,-0.01z" vector-effect="non-scaling-stroke"/>
    </g>
    <g id="Ebene_1" transform="matrix(1 0 0 1 38.13 37.82)">
     <path id="svg_44" fill-rule=" evenodd" fill=" rgb(32,86,43)" stroke-miterlimit="4" stroke-linejoin=" miter" stroke-dashoffset="0" stroke-dasharray=" none" stroke=" none" stroke-linecap=" butt" d="m-3.25,-85.86c0.47,-0.01 1.12,-0.05 1.63,-0.05c0.51,0 1.13,0.03 1.47,0.05l0,-0.45l-0.28,0c-0.57,0 -0.65,-0.11 -0.65,-0.78l0,-3.81c0.35,-0.33 1.03,-0.89 1.65,-0.89c0.51,0 0.83,0.16 1.02,0.35c0.42,0.4 0.48,0.79 0.48,1.58l0,2.32c0,0.92 -0.07,1.22 -0.68,1.22l-0.27,0l0,0.45c0.4,-0.01 1.08,-0.05 1.61,-0.05c0.53,0 1.17,0.03 1.53,0.05l0,-0.45l-0.22,0c-0.72,0 -0.83,-0.14 -0.83,-0.72l0,-2.68c0,-0.62 -0.04,-1.27 -0.33,-1.79c-0.44,-0.85 -1.29,-1.12 -1.8,-1.12c-0.96,0 -1.7,0.73 -2.25,1.3l0,-1.3l-0.15,0c-0.61,0.38 -1.32,0.73 -1.93,0.93l0,0.45c0.21,-0.11 0.4,-0.17 0.53,-0.17c0.35,0 0.52,0.23 0.52,1.55l0,2.51c0,0.87 -0.11,1.03 -0.77,1.03l-0.27,0l0,0.45l-0.01,0.02z" vector-effect="non-scaling-stroke"/>
    </g>
    <g id="Ebene_1" transform="matrix(1 0 0 1 46.59 35.44)">
     <path id="svg_45" fill-rule=" evenodd" fill=" rgb(32,86,43)" stroke-miterlimit="4" stroke-linejoin=" miter" stroke-dashoffset="0" stroke-dasharray=" none" stroke=" none" stroke-linecap=" butt" d="m1.94999,-84.83c-0.43,0.34 -0.98,0.68 -1.85,0.68c-1.57,0 -2.24,-1.73 -2.24,-3.06c0,-1.33 0.79,-2.53 2.24,-2.53c0.88,0 1.47,0.48 1.85,0.81l0,4.09l0,0.01zm2.32,0.19c-0.26,0.17 -0.49,0.19 -0.66,0.19c-0.34,0 -0.53,-0.24 -0.53,-1.19l0,-6.76c0,-1.43 0.01,-2.46 0.04,-2.8l-0.15,0c-0.84,0.48 -1.51,0.8 -2.19,1.06l0,0.51c0.12,-0.05 0.37,-0.16 0.63,-0.16c0.36,0 0.54,0.28 0.54,0.73l0,3.25c-0.63,-0.28 -1.13,-0.43 -1.81,-0.43c-1.91,0 -3.4,1.68 -3.4,3.62c0,2.2 1.51,3.24 2.89,3.24c0.94,0 1.7,-0.42 2.33,-0.94c0.03,0.34 0.1,0.81 0.31,1.03c0.75,-0.37 1.42,-0.65 2,-0.9l0,-0.45z" vector-effect="non-scaling-stroke"/>
    </g>
    <g id="Ebene_1" transform="matrix(1 0 0 1 59.33 35.73)">
     <path id="svg_46" fill-rule=" evenodd" fill=" rgb(32,86,43)" stroke-miterlimit="4" stroke-linejoin=" miter" stroke-dashoffset="0" stroke-dasharray=" none" stroke=" none" stroke-linecap=" butt" d="m-5.01,-83.77c0.36,-0.03 0.91,-0.04 1.46,-0.04c0.7,0 1.3,0.01 1.82,0.04l0,-0.45l-0.33,0c-0.46,0 -0.61,-0.2 -0.61,-0.47c0,-0.33 0.15,-0.76 0.26,-1.06l0.78,-2.34l3.44,0l1.08,2.66c0.07,0.12 0.21,0.53 0.21,0.73c0,0.31 -0.28,0.47 -0.75,0.47l-0.37,0l0,0.45c0.55,-0.03 1.26,-0.04 2.03,-0.04c0.77,0 1.45,0.01 2.01,0.04l0,-0.45l-0.31,0c-0.67,0 -1.14,-0.57 -1.48,-1.43l-3.8,-9.06l-0.28,0l-3.38,8.89c-0.46,1.24 -0.79,1.6 -1.6,1.6l-0.18,0l0,0.45l0,0.01zm6.61,-4.88l-3.04,0l1.38,-4.05l1.65,4.05l0.01,0z" vector-effect="non-scaling-stroke"/>
    </g>
    <g id="Ebene_1" transform="matrix(1 0 0 1 67.73 37.83)">
     <path id="svg_47" fill-rule=" evenodd" fill=" rgb(32,86,43)" stroke-miterlimit="4" stroke-linejoin=" miter" stroke-dashoffset="0" stroke-dasharray=" none" stroke=" none" stroke-linecap=" butt" d="m-1.94001,-85.87c0.47,-0.01 1.12,-0.05 1.63,-0.05c0.51,0 1.13,0.03 1.47,0.05l0,-0.45l-0.28,0c-0.57,0 -0.65,-0.11 -0.65,-0.78l0,-2.64c0,-1.44 0.93,-1.88 1.53,-1.88c0.39,0 0.83,0.11 0.94,0.53l0.24,0l0,-1.39c-0.19,-0.06 -0.47,-0.15 -0.89,-0.15c-0.75,0 -1.39,0.54 -1.88,1.54l-0.03,0l0,-1.54l-0.15,0c-0.61,0.46 -1.32,0.8 -1.93,1.07l0,0.44c0.2,-0.1 0.45,-0.16 0.57,-0.16c0.35,0 0.47,0.22 0.47,0.71l0,3.21c0,0.87 -0.11,1.03 -0.77,1.03l-0.27,0l0,0.45l0,0.01z" vector-effect="non-scaling-stroke"/>
    </g>
    <g id="Ebene_1" transform="matrix(1 0 0 1 76.82 37.84)">
     <path id="svg_48" fill-rule=" evenodd" fill=" rgb(32,86,43)" stroke-miterlimit="4" stroke-linejoin=" miter" stroke-dashoffset="0" stroke-dasharray=" none" stroke=" none" stroke-linecap=" butt" d="m-5.57,-85.88c0.47,-0.01 1.03,-0.05 1.56,-0.05c0.56,0 1.11,0.03 1.68,0.05l0,-0.45l-0.28,0c-0.49,0 -0.79,-0.12 -0.79,-0.88l0,-3.74c0.56,-0.39 1.07,-0.85 1.8,-0.85c0.92,0 1.54,0.59 1.54,1.6l0,3.1c0,0.63 -0.2,0.78 -0.84,0.78l-0.13,0l0,0.45c0.58,-0.01 1.12,-0.05 1.66,-0.05c0.49,0 0.99,0.03 1.48,0.05l0,-0.45l-0.3,0c-0.54,0 -0.74,-0.12 -0.74,-0.78l0,-3.84c0.56,-0.39 1.07,-0.85 1.8,-0.85c0.99,0 1.54,0.48 1.54,1.56l0,2.76c0,0.87 -0.1,1.15 -0.88,1.15l-0.15,0l0,0.45c0.61,-0.01 1.12,-0.05 1.64,-0.05c0.52,0 1,0.03 1.55,0.05l0,-0.45l-0.25,0c-0.61,0 -0.8,-0.11 -0.8,-0.9l0,-2.91c0,-0.88 -0.12,-1.35 -0.46,-1.81c-0.33,-0.43 -0.89,-0.69 -1.64,-0.69c-1.09,0 -1.98,0.73 -2.54,1.27c-0.38,-0.91 -1.21,-1.27 -2.11,-1.27c-0.9,0 -1.64,0.64 -2.26,1.17l0,-1.17l-0.15,0c-0.61,0.38 -1.32,0.73 -1.93,0.93l0,0.45c0.2,-0.11 0.39,-0.17 0.53,-0.17c0.35,0 0.52,0.23 0.52,1.55l0,2.51c0,0.87 -0.11,1.03 -0.77,1.03l-0.27,0l0,0.45l-0.01,0z" vector-effect="non-scaling-stroke"/>
    </g>
    <g id="Ebene_1" transform="matrix(1 0 0 1 87.48 37.93)">
     <path id="svg_49" fill-rule=" evenodd" fill=" rgb(32,86,43)" stroke-miterlimit="4" stroke-linejoin=" miter" stroke-dashoffset="0" stroke-dasharray=" none" stroke=" none" stroke-linecap=" butt" d="m-2.31,-88.81c0,1.05 0.04,1.62 0.42,2.14c0.35,0.48 0.88,0.8 1.62,0.8c0.89,0 1.76,-0.61 2.52,-1.08c0.01,0.37 0.06,0.83 0.17,1.12l0.11,0.05l1.91,-0.83l0,-0.44c-0.25,0.09 -0.61,0.25 -0.8,0.25c-0.17,0 -0.34,-0.06 -0.34,-0.71l0,-5.21l-0.18,0c-0.68,0.38 -1.39,0.73 -2.02,0.93l0,0.45c0.24,-0.11 0.45,-0.17 0.61,-0.17c0.35,0 0.47,0.23 0.47,0.71l0,3.33c-0.57,0.39 -1.31,0.84 -1.83,0.84c-1.24,0 -1.53,-0.98 -1.53,-2.2l0,-3.89l-0.18,0c-0.7,0.38 -1.4,0.73 -2.08,0.93l0,0.45c0.17,-0.11 0.4,-0.17 0.66,-0.17c0.34,0 0.47,0.23 0.47,0.71l0,2l0,-0.01z" vector-effect="non-scaling-stroke"/>
    </g>
    <g id="Ebene_1" transform="matrix(1 0 0 1 94.38 36.88)">
     <path id="svg_50" fill-rule=" evenodd" fill=" rgb(32,86,43)" stroke-miterlimit="4" stroke-linejoin=" miter" stroke-dashoffset="0" stroke-dasharray=" none" stroke=" none" stroke-linecap=" butt" d="m-2.13,-90.9l1.48,0l0,3.44c0,0.65 0.06,1.4 0.57,1.97c0.56,0.59 1.51,0.67 1.65,0.67c0.13,0 0.25,-0.01 0.35,-0.06l1.21,-1.02l-0.21,-0.25c-0.24,0.15 -0.69,0.38 -1.17,0.38c-1.03,0 -1.29,-0.99 -1.29,-1.79l0,-3.35l2.15,0l0.2,-0.63l-2.35,0l0,-2.15l-0.2,0.05c-0.62,1.18 -1.47,2.02 -2.39,2.59l0,0.15z" vector-effect="non-scaling-stroke"/>
    </g>
    <g id="Ebene_1" transform="matrix(1 0 0 1 -96.64 35.4)">
     <path id="svg_51" fill-rule=" evenodd" fill=" rgb(32,86,43)" stroke-miterlimit="4" stroke-linejoin=" miter" stroke-dashoffset="0" stroke-dasharray=" none" stroke=" none" stroke-linecap=" butt" d="m-2.05,-85.33c0,0.72 -0.06,1.19 -0.1,1.54c0.85,0.21 2.09,0.44 2.74,0.44c2.03,0 3.63,-1.49 3.63,-3.49c0,-1.73 -1.09,-3.36 -2.8,-3.36c-0.78,0 -1.57,0.38 -2.35,0.84l0,-3c0,-1.43 0.01,-2.46 0.04,-2.8l-0.15,0c-0.84,0.48 -1.51,0.8 -2.19,1.06l0,0.51c0.12,-0.04 0.37,-0.16 0.62,-0.16c0.37,0 0.55,0.28 0.55,0.73l0,7.7l0.01,-0.01zm1.12,-3.47c0.56,-0.34 1.01,-0.57 1.61,-0.57c1.78,0 2.43,1.71 2.43,2.83c0,1.55 -0.92,2.75 -2.24,2.75c-0.67,0 -1.19,-0.22 -1.8,-0.52l0,-4.5l0,0.01z" vector-effect="non-scaling-stroke"/>
    </g>
   </g>
  </g>
 </g>
</svg>