<?xml version="1.0" encoding="UTF-8"?>
<svg version="1.1" width="300" height="100" viewBox="0 0 300 100" xmlns="http://www.w3.org/2000/svg">
  <rect x="40" y="20" width="220" height="10" fill="#ffffff" />
  <rect x="40" y="70" width="220" height="10" fill="#ffffff" />
  <path d="M9.249 0L2.361 0L2.361-22.190L13.790-22.190Q16.968-22.190 18.648-21.646Q20.329-21.101 21.358-19.625Q22.387-18.149 22.387-16.030L22.387-16.030Q22.387-14.183 21.600-12.844Q20.813-11.504 19.436-10.671L19.436-10.671Q18.558-10.142 17.029-9.793L17.029-9.793Q18.255-9.385 18.815-8.976L18.815-8.976Q19.193-8.704 19.912-7.811Q20.631-6.917 20.874-6.433L20.874-6.433L24.188 0L16.438 0L12.775-6.781Q12.079-8.098 11.534-8.492L11.534-8.492Q10.792-9.006 9.854-9.006L9.854-9.006L9.249-9.006L9.249 0ZM9.249-17.710L9.249-13.199L12.140-13.199Q12.609-13.199 13.956-13.502L13.956-13.502Q14.637-13.638 15.069-14.198Q15.500-14.758 15.500-15.485L15.500-15.485Q15.500-16.560 14.819-17.135Q14.138-17.710 12.261-17.710L12.261-17.710L9.249-17.710Z" fill="#ffffff" transform="matrix(1.09057 0 0 1 40 61.087646)" />
  <path d="M2.255 0L2.255-22.190L20.631-22.190L20.631-17.453L9.127-17.453L9.127-13.926L19.799-13.926L19.799-9.400L9.127-9.400L9.127-5.025L20.964-5.025L20.964 0L2.255 0Z" fill="#ffffff" transform="matrix(1.09057 0 0 1 67.945457 61.087646)" />
  <path d="M2.316 0L2.316-22.190L8.719-22.190L17.074-9.915L17.074-22.190L23.538-22.190L23.538 0L17.074 0L8.764-12.185L8.764 0L2.316 0Z" fill="#ffffff" transform="matrix(1.09057 0 0 1 94.009043 61.087646)" />
  <path d="M17.044-9.067L17.044-9.067L23.053-7.250Q22.448-4.723 21.146-3.027Q19.844-1.332 17.914-0.469Q15.984 0.394 13.002 0.394L13.002 0.394Q9.385 0.394 7.092-0.658Q4.798-1.710 3.133-4.359Q1.468-7.008 1.468-11.141L1.468-11.141Q1.468-16.650 4.397-19.610Q7.326-22.569 12.685-22.569L12.685-22.569Q16.877-22.569 19.277-20.874Q21.676-19.178 22.841-15.667L22.841-15.667L16.787-14.319Q16.469-15.333 16.121-15.803L16.121-15.803Q15.545-16.590 14.713-17.014Q13.880-17.438 12.851-17.438L12.851-17.438Q10.520-17.438 9.279-15.561L9.279-15.561Q8.340-14.168 8.340-11.186L8.340-11.186Q8.340-7.493 9.460-6.123Q10.581-4.753 12.609-4.753L12.609-4.753Q14.577-4.753 15.583-5.858Q16.590-6.963 17.044-9.067Z" fill="#ffffff" transform="matrix(1.09057 0 0 1 123.819865 61.087646)" />
  <path d="M1.408-11.080L1.408-11.080Q1.408-16.514 4.435-19.542Q7.462-22.569 12.866-22.569L12.866-22.569Q18.406-22.569 21.403-19.594Q24.400-16.620 24.400-11.262L24.400-11.262Q24.400-7.372 23.091-4.882Q21.782-2.392 19.307-1.007Q16.832 0.378 13.139 0.378L13.139 0.378Q9.385 0.378 6.925-0.817Q4.465-2.013 2.937-4.602Q1.408-7.190 1.408-11.080ZM8.265-11.050L8.265-11.050Q8.265-7.689 9.513-6.221Q10.762-4.753 12.912-4.753L12.912-4.753Q15.122-4.753 16.333-6.191Q17.543-7.629 17.543-11.353L17.543-11.353Q17.543-14.486 16.280-15.931Q15.016-17.377 12.851-17.377L12.851-17.377Q10.777-17.377 9.521-15.909Q8.265-14.440 8.265-11.050Z" fill="#ffffff" transform="matrix(1.09057 0 0 1 151.765322 61.087646)" />
  <path d="M9.249 0L2.361 0L2.361-22.190L13.790-22.190Q16.968-22.190 18.648-21.646Q20.329-21.101 21.358-19.625Q22.387-18.149 22.387-16.030L22.387-16.030Q22.387-14.183 21.600-12.844Q20.813-11.504 19.436-10.671L19.436-10.671Q18.558-10.142 17.029-9.793L17.029-9.793Q18.255-9.385 18.815-8.976L18.815-8.976Q19.193-8.704 19.912-7.811Q20.631-6.917 20.874-6.433L20.874-6.433L24.188 0L16.438 0L12.775-6.781Q12.079-8.098 11.534-8.492L11.534-8.492Q10.792-9.006 9.854-9.006L9.854-9.006L9.249-9.006L9.249 0ZM9.249-17.710L9.249-13.199L12.140-13.199Q12.609-13.199 13.956-13.502L13.956-13.502Q14.637-13.638 15.069-14.198Q15.500-14.758 15.500-15.485L15.500-15.485Q15.500-16.560 14.819-17.135Q14.138-17.710 12.261-17.710L12.261-17.710L9.249-17.710Z" fill="#ffffff" transform="matrix(1.09057 0 0 1 181.576144 61.087646)" />
  <path d="M2.255 0L2.255-22.190L20.631-22.190L20.631-17.453L9.127-17.453L9.127-13.926L19.799-13.926L19.799-9.400L9.127-9.400L9.127-5.025L20.964-5.025L20.964 0L2.255 0Z" fill="#ffffff" transform="matrix(1.09057 0 0 1 209.521601 61.087646)" />
  <path d="M0.711-16.711L0.711-22.190L21.555-22.190L21.555-16.711L14.562-16.711L14.562 0L7.705 0L7.705-16.711L0.711-16.711Z" fill="#ffffff" transform="matrix(1.09057 0 0 1 235.585187 61.087646)" />
</svg>
